
<svg xmlns="http://www.w3.org/2000/svg" xmlns:xlink="http://www.w3.org/1999/xlink" preserveAspectRatio="xMidYMid meet" version="1.0" viewBox="0.0 0.0 100.0 55.2" zoomAndPan="magnify" style="fill: rgb(253, 253, 253);" original_string_length="819"><g id="__id121_srve0vjkxo"><path d="m77.959,11.074c-3.73,0-7.34.932-10.543,2.682-3.9-8.22-12.307-13.756-21.723-13.756-12.85,0-23.376,10.141-23.998,22.838-5.901.703-10.961,4.62-13.149,10.089-4.903,1.225-8.546,5.668-8.546,10.946 0,6.22 5.061,11.281 11.282,11.281h32.974v-17.744h-5.468c-1.058,0-1.413-1.208-.802-1.94 3.298-3.962 7.912-7.925 11.21-11.887 .242-.291.528-.397.803-.378 .275-.019.561.087.803.378 3.298,3.962 7.913,7.925 11.21,11.887 .61.732.256,1.94-.803,1.94h-5.468v17.744h22.216c12.154,0 22.041-9.887 22.041-22.04s-9.887-22.04-22.039-22.04z" style="fill: inherit;"/></g></svg>